<svg width="19" height="21" viewBox="0 0 19 21" fill="none" xmlns="http://www.w3.org/2000/svg">
<path d="M16.3906 2.625H12.7812V1.96875C12.7812 0.883189 11.8981 0 10.8125 0H8.1875C7.10194 0 6.21875 0.883189 6.21875 1.96875V2.625H2.60938C1.70473 2.625 0.96875 3.36098 0.96875 4.26562V6.5625C0.96875 6.92491 1.26259 7.21875 1.625 7.21875H1.98364L2.5506 19.1249C2.60068 20.1764 3.46447 21 4.51709 21H14.4829C15.5356 21 16.3994 20.1764 16.4494 19.1249L17.0164 7.21875H17.375C17.7374 7.21875 18.0312 6.92491 18.0312 6.5625V4.26562C18.0312 3.36098 17.2953 2.625 16.3906 2.625ZM7.53125 1.96875C7.53125 1.60691 7.82566 1.3125 8.1875 1.3125H10.8125C11.1743 1.3125 11.4688 1.60691 11.4688 1.96875V2.625H7.53125V1.96875ZM2.28125 4.26562C2.28125 4.0847 2.42846 3.9375 2.60938 3.9375H16.3906C16.5715 3.9375 16.7188 4.0847 16.7188 4.26562V5.90625C16.5165 5.90625 3.11932 5.90625 2.28125 5.90625V4.26562ZM15.1384 19.0625C15.1217 19.4129 14.8338 19.6875 14.4829 19.6875H4.51709C4.1662 19.6875 3.87828 19.4129 3.86162 19.0625L3.29762 7.21875H15.7024L15.1384 19.0625Z" fill="#FCF6F6"/>
</svg>
