<svg width="22" height="22" viewBox="0 0 22 22" fill="none" xmlns="http://www.w3.org/2000/svg">
<path d="M18.8137 1.65674C17.7199 0.564942 15.9488 0.564942 14.8551 1.65674L13.8641 2.65308L3.3159 13.1957L3.29348 13.2183C3.28805 13.2237 3.28805 13.2295 3.28227 13.2295C3.27107 13.2463 3.25425 13.263 3.24322 13.2798C3.24322 13.2854 3.23744 13.2854 3.23744 13.291C3.22623 13.3078 3.2208 13.319 3.20942 13.3358C3.20399 13.3414 3.20399 13.3469 3.19839 13.3526C3.19278 13.3695 3.18718 13.3807 3.1814 13.3975C3.1814 13.4029 3.17597 13.4029 3.17597 13.4087L0.83563 20.4463C0.766977 20.6467 0.819168 20.8686 0.969959 21.0173C1.07592 21.1218 1.21883 21.1803 1.36752 21.1798C1.42829 21.1788 1.48854 21.1693 1.54668 21.1518L8.5789 18.8058C8.58433 18.8058 8.58433 18.8058 8.59011 18.8004C8.6078 18.7952 8.62479 18.7876 8.64037 18.7778C8.64475 18.7773 8.64861 18.7754 8.65176 18.7724C8.6684 18.7612 8.69081 18.7498 8.70763 18.7386C8.72426 18.7276 8.74125 18.7107 8.75807 18.6995C8.76367 18.6938 8.7691 18.6938 8.7691 18.6883C8.77488 18.6827 8.78609 18.6773 8.79169 18.6659L20.3309 7.12675C21.4226 6.03303 21.4226 4.26188 20.3309 3.16833L18.8137 1.65674ZM8.39974 17.49L4.50297 13.5935L14.2561 3.84033L18.1529 7.73692L8.39974 17.49ZM3.95409 14.6292L7.35838 18.0333L2.24652 19.7353L3.95409 14.6292ZM19.5415 6.34284L18.948 6.94198L15.051 3.04504L15.6504 2.44607C16.3059 1.79107 17.3684 1.79107 18.0241 2.44607L19.5469 3.96888C20.1976 4.62739 20.1951 5.68748 19.5415 6.34284Z" fill="#FFFAFA"/>
</svg>
